ISO-10303-21;
HEADER;
FILE_DESCRIPTION(('FreeCAD Model'),'2;1');
FILE_NAME('Open CASCADE Shape Model','2025-01-08T07:38:24',('Author'),(
    ''),'Open CASCADE STEP processor 7.8','FreeCAD','Unknown');
FILE_SCHEMA(('AUTOMOTIVE_DESIGN { 1 0 10303 214 1 1 1 1 }'));
ENDSEC;
DATA;
#1 = APPLICATION_PROTOCOL_DEFINITION('international standard',
  'automotive_design',2000,#2);
#2 = APPLICATION_CONTEXT(
  'core data for automotive mechanical design processes');
#3 = SHAPE_DEFINITION_REPRESENTATION(#4,#10);
#4 = PRODUCT_DEFINITION_SHAPE('','',#5);
#5 = PRODUCT_DEFINITION('design','',#6,#9);
#6 = PRODUCT_DEFINITION_FORMATION('','',#7);
#7 = PRODUCT('Body','Body','',(#8));
#8 = PRODUCT_CONTEXT('',#2,'mechanical');
#9 = PRODUCT_DEFINITION_CONTEXT('part definition',#2,'design');
#10 = ADVANCED_BREP_SHAPE_REPRESENTATION('',(#11,#15),#203);
#11 = AXIS2_PLACEMENT_3D('',#12,#13,#14);
#12 = CARTESIAN_POINT('',(0.,0.,0.));
#13 = DIRECTION('',(0.,0.,1.));
#14 = DIRECTION('',(1.,0.,-0.));
#15 = MANIFOLD_SOLID_BREP('',#16);
#16 = CLOSED_SHELL('',(#17,#50,#75,#95,#120,#146,#166,#191));
#17 = ADVANCED_FACE('',(#18),#45,.F.);
#18 = FACE_BOUND('',#19,.F.);
#19 = EDGE_LOOP('',(#20,#29,#37,#44));
#20 = ORIENTED_EDGE('',*,*,#21,.T.);
#21 = EDGE_CURVE('',#22,#22,#24,.T.);
#22 = VERTEX_POINT('',#23);
#23 = CARTESIAN_POINT('',(-35.,0.,-0.));
#24 = CIRCLE('',#25,35.);
#25 = AXIS2_PLACEMENT_3D('',#26,#27,#28);
#26 = CARTESIAN_POINT('',(0.,0.,0.));
#27 = DIRECTION('',(0.,2.22044604925E-16,1.));
#28 = DIRECTION('',(-1.,-0.,0.));
#29 = ORIENTED_EDGE('',*,*,#30,.T.);
#30 = EDGE_CURVE('',#22,#31,#33,.T.);
#31 = VERTEX_POINT('',#32);
#32 = CARTESIAN_POINT('',(-50.,5.949718717702E-15,26.795151));
#33 = LINE('',#34,#35);
#34 = CARTESIAN_POINT('',(-35.,0.,0.));
#35 = VECTOR('',#36,1.);
#36 = DIRECTION('',(-0.488472356447,1.937515414822E-16,0.872579370022));
#37 = ORIENTED_EDGE('',*,*,#38,.F.);
#38 = EDGE_CURVE('',#31,#31,#39,.T.);
#39 = CIRCLE('',#40,50.);
#40 = AXIS2_PLACEMENT_3D('',#41,#42,#43);
#41 = CARTESIAN_POINT('',(0.,5.949718717702E-15,26.795151));
#42 = DIRECTION('',(0.,2.22044604925E-16,1.));
#43 = DIRECTION('',(-1.,-0.,0.));
#44 = ORIENTED_EDGE('',*,*,#30,.F.);
#45 = CONICAL_SURFACE('',#46,35.,0.510338171688);
#46 = AXIS2_PLACEMENT_3D('',#47,#48,#49);
#47 = CARTESIAN_POINT('',(0.,0.,0.));
#48 = DIRECTION('',(0.,2.22044604925E-16,1.));
#49 = DIRECTION('',(-1.,-0.,0.));
#50 = ADVANCED_FACE('',(#51),#70,.F.);
#51 = FACE_BOUND('',#52,.F.);
#52 = EDGE_LOOP('',(#53,#54,#62,#69));
#53 = ORIENTED_EDGE('',*,*,#38,.T.);
#54 = ORIENTED_EDGE('',*,*,#55,.T.);
#55 = EDGE_CURVE('',#31,#56,#58,.T.);
#56 = VERTEX_POINT('',#57);
#57 = CARTESIAN_POINT('',(-50.,1.110223024625E-14,50.));
#58 = LINE('',#59,#60);
#59 = CARTESIAN_POINT('',(-50.,5.949718717702E-15,26.795151));
#60 = VECTOR('',#61,1.);
#61 = DIRECTION('',(0.,2.22044604925E-16,1.));
#62 = ORIENTED_EDGE('',*,*,#63,.F.);
#63 = EDGE_CURVE('',#56,#56,#64,.T.);
#64 = CIRCLE('',#65,50.);
#65 = AXIS2_PLACEMENT_3D('',#66,#67,#68);
#66 = CARTESIAN_POINT('',(0.,1.110223024625E-14,50.));
#67 = DIRECTION('',(0.,2.22044604925E-16,1.));
#68 = DIRECTION('',(-1.,-0.,0.));
#69 = ORIENTED_EDGE('',*,*,#55,.F.);
#70 = CYLINDRICAL_SURFACE('',#71,50.);
#71 = AXIS2_PLACEMENT_3D('',#72,#73,#74);
#72 = CARTESIAN_POINT('',(0.,5.949718717702E-15,26.795151));
#73 = DIRECTION('',(0.,2.22044604925E-16,1.));
#74 = DIRECTION('',(-1.,-0.,0.));
#75 = ADVANCED_FACE('',(#76,#79),#90,.T.);
#76 = FACE_BOUND('',#77,.F.);
#77 = EDGE_LOOP('',(#78));
#78 = ORIENTED_EDGE('',*,*,#63,.T.);
#79 = FACE_BOUND('',#80,.F.);
#80 = EDGE_LOOP('',(#81));
#81 = ORIENTED_EDGE('',*,*,#82,.F.);
#82 = EDGE_CURVE('',#83,#83,#85,.T.);
#83 = VERTEX_POINT('',#84);
#84 = CARTESIAN_POINT('',(-65.,1.110223024625E-14,50.));
#85 = CIRCLE('',#86,65.);
#86 = AXIS2_PLACEMENT_3D('',#87,#88,#89);
#87 = CARTESIAN_POINT('',(0.,1.110223024625E-14,50.));
#88 = DIRECTION('',(0.,2.22044604925E-16,1.));
#89 = DIRECTION('',(-1.,-0.,0.));
#90 = PLANE('',#91);
#91 = AXIS2_PLACEMENT_3D('',#92,#93,#94);
#92 = CARTESIAN_POINT('',(0.,1.110223024625E-14,50.));
#93 = DIRECTION('',(0.,2.22044604925E-16,1.));
#94 = DIRECTION('',(-1.,-0.,-0.));
#95 = ADVANCED_FACE('',(#96),#115,.T.);
#96 = FACE_BOUND('',#97,.F.);
#97 = EDGE_LOOP('',(#98,#99,#107,#114));
#98 = ORIENTED_EDGE('',*,*,#82,.T.);
#99 = ORIENTED_EDGE('',*,*,#100,.T.);
#100 = EDGE_CURVE('',#83,#101,#103,.T.);
#101 = VERTEX_POINT('',#102);
#102 = CARTESIAN_POINT('',(-65.,5.510323881398E-15,24.816292578955));
#103 = LINE('',#104,#105);
#104 = CARTESIAN_POINT('',(-65.,1.110223024625E-14,50.));
#105 = VECTOR('',#106,1.);
#106 = DIRECTION('',(0.,-2.22044604925E-16,-1.));
#107 = ORIENTED_EDGE('',*,*,#108,.F.);
#108 = EDGE_CURVE('',#101,#101,#109,.T.);
#109 = CIRCLE('',#110,65.);
#110 = AXIS2_PLACEMENT_3D('',#111,#112,#113);
#111 = CARTESIAN_POINT('',(0.,5.510323881398E-15,24.816292578955));
#112 = DIRECTION('',(0.,2.22044604925E-16,1.));
#113 = DIRECTION('',(-1.,-0.,0.));
#114 = ORIENTED_EDGE('',*,*,#100,.F.);
#115 = CYLINDRICAL_SURFACE('',#116,65.);
#116 = AXIS2_PLACEMENT_3D('',#117,#118,#119);
#117 = CARTESIAN_POINT('',(0.,1.110223024625E-14,50.));
#118 = DIRECTION('',(0.,-2.22044604925E-16,-1.));
#119 = DIRECTION('',(-1.,-0.,0.));
#120 = ADVANCED_FACE('',(#121),#141,.F.);
#121 = FACE_BOUND('',#122,.T.);
#122 = EDGE_LOOP('',(#123,#132,#139,#140));
#123 = ORIENTED_EDGE('',*,*,#124,.T.);
#124 = EDGE_CURVE('',#125,#125,#127,.T.);
#125 = VERTEX_POINT('',#126);
#126 = CARTESIAN_POINT('',(-99.5336455922,5.551115123126E-15,25.));
#127 = CIRCLE('',#128,99.533645592206);
#128 = AXIS2_PLACEMENT_3D('',#129,#130,#131);
#129 = CARTESIAN_POINT('',(0.,5.551115123126E-15,25.));
#130 = DIRECTION('',(0.,2.22044604925E-16,1.));
#131 = DIRECTION('',(-1.,-0.,0.));
#132 = ORIENTED_EDGE('',*,*,#133,.T.);
#133 = EDGE_CURVE('',#125,#101,#134,.T.);
#134 = CIRCLE('',#135,20.);
#135 = AXIS2_PLACEMENT_3D('',#136,#137,#138);
#136 = CARTESIAN_POINT('',(-82.21313751651,7.771561172376E-15,35.));
#137 = DIRECTION('',(0.,-1.,2.22044604925E-16));
#138 = DIRECTION('',(1.,0.,0.));
#139 = ORIENTED_EDGE('',*,*,#108,.F.);
#140 = ORIENTED_EDGE('',*,*,#133,.F.);
#141 = TOROIDAL_SURFACE('',#142,82.213137516518,20.);
#142 = AXIS2_PLACEMENT_3D('',#143,#144,#145);
#143 = CARTESIAN_POINT('',(0.,7.771561172376E-15,35.));
#144 = DIRECTION('',(0.,-2.22044604925E-16,-1.));
#145 = DIRECTION('',(-1.,-0.,0.));
#146 = ADVANCED_FACE('',(#147,#150),#161,.T.);
#147 = FACE_BOUND('',#148,.F.);
#148 = EDGE_LOOP('',(#149));
#149 = ORIENTED_EDGE('',*,*,#124,.T.);
#150 = FACE_BOUND('',#151,.F.);
#151 = EDGE_LOOP('',(#152));
#152 = ORIENTED_EDGE('',*,*,#153,.F.);
#153 = EDGE_CURVE('',#154,#154,#156,.T.);
#154 = VERTEX_POINT('',#155);
#155 = CARTESIAN_POINT('',(-149.5336455922,5.551115123126E-15,25.));
#156 = CIRCLE('',#157,149.5336455922);
#157 = AXIS2_PLACEMENT_3D('',#158,#159,#160);
#158 = CARTESIAN_POINT('',(0.,5.551115123126E-15,25.));
#159 = DIRECTION('',(0.,2.22044604925E-16,1.));
#160 = DIRECTION('',(-1.,-0.,0.));
#161 = PLANE('',#162);
#162 = AXIS2_PLACEMENT_3D('',#163,#164,#165);
#163 = CARTESIAN_POINT('',(0.,5.551115123126E-15,25.));
#164 = DIRECTION('',(0.,2.22044604925E-16,1.));
#165 = DIRECTION('',(-1.,-0.,-0.));
#166 = ADVANCED_FACE('',(#167),#186,.T.);
#167 = FACE_BOUND('',#168,.F.);
#168 = EDGE_LOOP('',(#169,#170,#178,#185));
#169 = ORIENTED_EDGE('',*,*,#153,.T.);
#170 = ORIENTED_EDGE('',*,*,#171,.T.);
#171 = EDGE_CURVE('',#154,#172,#174,.T.);
#172 = VERTEX_POINT('',#173);
#173 = CARTESIAN_POINT('',(-149.5336455922,0.,-0.));
#174 = LINE('',#175,#176);
#175 = CARTESIAN_POINT('',(-149.5336455922,5.551115123126E-15,25.));
#176 = VECTOR('',#177,1.);
#177 = DIRECTION('',(0.,-2.22044604925E-16,-1.));
#178 = ORIENTED_EDGE('',*,*,#179,.F.);
#179 = EDGE_CURVE('',#172,#172,#180,.T.);
#180 = CIRCLE('',#181,149.5336455922);
#181 = AXIS2_PLACEMENT_3D('',#182,#183,#184);
#182 = CARTESIAN_POINT('',(0.,0.,0.));
#183 = DIRECTION('',(0.,2.22044604925E-16,1.));
#184 = DIRECTION('',(-1.,-0.,0.));
#185 = ORIENTED_EDGE('',*,*,#171,.F.);
#186 = CYLINDRICAL_SURFACE('',#187,149.5336455922);
#187 = AXIS2_PLACEMENT_3D('',#188,#189,#190);
#188 = CARTESIAN_POINT('',(0.,5.551115123126E-15,25.));
#189 = DIRECTION('',(0.,-2.22044604925E-16,-1.));
#190 = DIRECTION('',(-1.,-0.,0.));
#191 = ADVANCED_FACE('',(#192,#195),#198,.F.);
#192 = FACE_BOUND('',#193,.F.);
#193 = EDGE_LOOP('',(#194));
#194 = ORIENTED_EDGE('',*,*,#179,.T.);
#195 = FACE_BOUND('',#196,.F.);
#196 = EDGE_LOOP('',(#197));
#197 = ORIENTED_EDGE('',*,*,#21,.F.);
#198 = PLANE('',#199);
#199 = AXIS2_PLACEMENT_3D('',#200,#201,#202);
#200 = CARTESIAN_POINT('',(0.,0.,0.));
#201 = DIRECTION('',(0.,2.22044604925E-16,1.));
#202 = DIRECTION('',(-1.,-0.,0.));
#203 = ( GEOMETRIC_REPRESENTATION_CONTEXT(3) 
GLOBAL_UNCERTAINTY_ASSIGNED_CONTEXT((#207)) GLOBAL_UNIT_ASSIGNED_CONTEXT
((#204,#205,#206)) REPRESENTATION_CONTEXT('Context #1',
  '3D Context with UNIT and UNCERTAINTY') );
#204 = ( LENGTH_UNIT() NAMED_UNIT(*) SI_UNIT(.MILLI.,.METRE.) );
#205 = ( NAMED_UNIT(*) PLANE_ANGLE_UNIT() SI_UNIT($,.RADIAN.) );
#206 = ( NAMED_UNIT(*) SI_UNIT($,.STERADIAN.) SOLID_ANGLE_UNIT() );
#207 = UNCERTAINTY_MEASURE_WITH_UNIT(LENGTH_MEASURE(1.E-07),#204,
  'distance_accuracy_value','confusion accuracy');
#208 = PRODUCT_RELATED_PRODUCT_CATEGORY('part',$,(#7));
#209 = MECHANICAL_DESIGN_GEOMETRIC_PRESENTATION_REPRESENTATION('',(#210)
  ,#203);
#210 = STYLED_ITEM('color',(#211),#15);
#211 = PRESENTATION_STYLE_ASSIGNMENT((#212,#218));
#212 = SURFACE_STYLE_USAGE(.BOTH.,#213);
#213 = SURFACE_SIDE_STYLE('',(#214));
#214 = SURFACE_STYLE_FILL_AREA(#215);
#215 = FILL_AREA_STYLE('',(#216));
#216 = FILL_AREA_STYLE_COLOUR('',#217);
#217 = COLOUR_RGB('',0.678430976034,0.709803998361,0.741176010593);
#218 = CURVE_STYLE('',#219,POSITIVE_LENGTH_MEASURE(0.1),#220);
#219 = DRAUGHTING_PRE_DEFINED_CURVE_FONT('continuous');
#220 = COLOUR_RGB('',9.803921802644E-02,9.803921802644E-02,
  9.803921802644E-02);
ENDSEC;
END-ISO-10303-21;
